<svg width="262" height="250" viewBox="0 0 262 250" fill="none" xmlns="http://www.w3.org/2000/svg">
<path d="M232.87 88.4702L260.501 60.8393C261.64 59.702 262.176 58.0928 261.948 56.4997C261.722 54.9066 260.757 53.5114 259.345 52.7358L226.128 34.4958C223.651 33.1366 220.541 34.0421 219.18 36.5187C217.82 38.9973 218.724 42.1076 221.202 43.4669L248.443 58.4247L224.73 82.1356L139.443 35.3034L163.154 11.5924L187.123 24.7552C189.6 26.1144 192.712 25.2109 194.071 22.7323C195.433 20.2556 194.527 17.1434 192.048 15.7841L164.713 0.77235C162.719 -0.323048 160.24 0.0307572 158.633 1.63987L131 29.2727L103.367 1.63987C101.758 0.0307572 99.2794 -0.321049 97.2865 0.77235L2.65448 52.7358C1.24326 53.5114 0.27779 54.9046 0.0519136 56.4997C-0.175961 58.0928 0.359745 59.702 1.49912 60.8393L29.1299 88.4702L1.49912 116.099C0.359745 117.238 -0.175961 118.845 0.0519136 120.441C0.27779 122.034 1.24326 123.429 2.65448 124.203L31.2508 139.906V192.393C31.2508 194.262 32.2682 195.981 33.9053 196.881L128.537 248.842C129.305 249.264 130.152 249.474 131 249.474C131.847 249.474 132.695 249.264 133.463 248.842L228.095 196.881C229.732 195.981 230.749 194.262 230.749 192.393V139.906L259.345 124.205C260.757 123.429 261.722 122.034 261.948 120.441C262.176 118.847 261.64 117.238 260.501 116.101L232.87 88.4702ZM131 134.593L47.0001 88.4682L131 42.3415L215 88.4682L131 134.593ZM98.8476 11.5924L122.557 35.3034L37.2695 82.1356L13.5585 58.4247L98.8476 11.5924ZM37.2735 94.8027L122.561 141.635L98.8476 165.348L13.5585 118.516L37.2735 94.8027ZM220.515 189.367L136.117 235.709V183.4C136.117 180.574 133.826 178.283 131 178.283C128.174 178.283 125.883 180.574 125.883 183.4V235.709L41.4851 189.367V145.527L97.2865 176.168C98.0601 176.592 98.9076 176.8 99.7471 176.8C101.072 176.8 102.384 176.284 103.367 175.3L131 147.668L158.633 175.3C159.616 176.286 160.928 176.8 162.253 176.8C163.092 176.8 163.94 176.592 164.713 176.168L220.515 145.527V189.367ZM163.154 165.348L139.441 141.633L224.728 94.8027L248.443 118.514L163.154 165.348Z" fill="black"/>
</svg>
